PERFORMER "Above & Beyond, Markus Schulz"
TITLE "Essential Mix (2007-09-09) (Live @ Planet Love 2007)"
FILE "Essential Mix - 2007-09-09 - Above & Beyond & Markus Schulz, Live From Planet Love 2007.mp3" MP3
  TRACK 01 AUDIO
    PERFORMER "Essential Mix"
    TITLE "Intro"
    INDEX 01 00:00:00
  TRACK 02 AUDIO
    PERFORMER "Signalrunners"
    TITLE "Electric Sheep"
    INDEX 01 01:30:49
  TRACK 03 AUDIO
    PERFORMER "Paul van Dyk feat. Ashley Tomberlin vs. Luminary"
    TITLE "New York City vs. Amsterdam (Smith & Pledger Remix)"
    INDEX 01 08:18:46
  TRACK 04 AUDIO
    PERFORMER "Nitrous Oxide"
    TITLE "Amnesia"
    INDEX 01 14:44:02
  TRACK 05 AUDIO
    PERFORMER "Above & Beyond"
    TITLE "Home (Wippenberg Remix)"
    INDEX 01 19:28:28
  TRACK 06 AUDIO
    PERFORMER "Above & Beyond pres. Tranquility Base"
    TITLE "Buzz"
    INDEX 01 24:54:42
  TRACK 07 AUDIO
    PERFORMER "Boom Jinx"
    TITLE "Eternal Reminesences"
    INDEX 01 30:48:07
  TRACK 08 AUDIO
    PERFORMER "Maor Levi"
    TITLE "Shapes (Oliver Smith Remix)"
    INDEX 01 37:28:50
  TRACK 09 AUDIO
    PERFORMER "Coldware"
    TITLE "What's Your Name?"
    INDEX 01 42:37:72
  TRACK 10 AUDIO
    PERFORMER "OceanLab"
    TITLE "Breaking Ties (Above & Beyond's Analog Heaven Mix)"
    INDEX 01 46:08:08
  TRACK 11 AUDIO
    PERFORMER "Nitrous Oxide"
    TITLE "Waves"
    INDEX 01 53:05:65
  TRACK 12 AUDIO
    PERFORMER "Above & Beyond pres. Tranquility Base"
    TITLE "Oceanic (Sean Tyas Remix)"
    INDEX 01 57:42:66
  TRACK 13 AUDIO
    PERFORMER "Markus Schulz feat. Andy Moor"
    TITLE "Daydream (Intro Edit)"
    INDEX 01 61:44:52
  TRACK 14 AUDIO
    PERFORMER "ID"
    TITLE "ID"
    INDEX 01 64:50:73
  TRACK 15 AUDIO
    PERFORMER "Skytech"
    TITLE "Floating Clouds (ID Remix)"
    INDEX 01 69:52:13
  TRACK 16 AUDIO
    PERFORMER "ID"
    TITLE "ID"
    INDEX 01 73:55:25
  TRACK 17 AUDIO
    PERFORMER "Destination X"
    TITLE "Dangerous (Gareth Emery Remix)"
    INDEX 01 81:01:74
  TRACK 18 AUDIO
    PERFORMER "Markus Schulz feat. Departure with Gabriel & Dresden"
    TITLE "Without You Near (ID Remix)"
    INDEX 01 84:37:00
  TRACK 19 AUDIO
    PERFORMER "Terk Dawn"
    TITLE "Barent Blue (Marninx pres. Monogato Remix)"
    INDEX 01 91:14:18
  TRACK 20 AUDIO
    PERFORMER "Nic Chagall"
    TITLE "What You Need (NC's In Love With Prog Mix) (Markus Schulz Rework)"
    INDEX 01 96:19:25
  TRACK 21 AUDIO
    PERFORMER "Markus Schulz"
    TITLE "Fly To Colors (Genix Remix)"
    INDEX 01 103:21:50
  TRACK 22 AUDIO
    PERFORMER "ID"
    TITLE "ID"
    INDEX 01 107:37:15
  TRACK 23 AUDIO
    PERFORMER "Rex Mundi vs. Ronski Speed"
    TITLE "The Perspective Space (Markus Schulz Mashup)"
    INDEX 01 111:27:07